<svg version="1.0" xmlns="http://www.w3.org/2000/svg" width="600.000000pt" height="600.000000pt" viewBox="0 0 600.000000 600.000000" preserveAspectRatio="xMidYMid meet" style="width: 427.621px; height: auto;"> <g transform="translate(0.000000,600.000000) scale(0.100000,-0.100000)" fill="#000000" stroke="none" class=""> <path d="M1443 4083 c-86 -4 -89 -11 -25 -42 47 -24 48 -24 392 -22 l345 2 20 -38 c24 -44 54 -62 231 -138 l131 -56 12 -156 c14 -184 5 -164 86 -201 35 -17 133 -70 216 -118 117 -67 156 -85 168 -77 94 59 377 213 411 225 6 2 16 76 24 166 7 89 15 164 17 166 2 1 31 13 64 26 204 80 305 143 305 190 0 9 87 11 348 9 346 -2 347 -2 395 22 26 12 47 26 47 29 0 12 -209 20 -526 20 l-313 0 -19 -42 c-29 -66 -76 -99 -230 -163 l-142 -58 -1 -81 c0 -45 -4 -102 -7 -128 l-7 -47 -93 -45 c-51 -25 -136 -73 -188 -106 -53 -33 -98 -60 -100 -60 -2 0 -55 30 -117 68 -62 37 -149 85 -193 106 l-81 39 -6 125 c-3 68 -8 126 -10 129 -3 2 -69 31 -148 64 -154 64 -191 90 -220 157 l-18 42 -348 -2 c-191 -1 -381 -4 -420 -5z m1332 -645 c61 -34 134 -76 163 -95 66 -42 54 -43 171 26 132 79 249 141 267 141 29 0 12 -21 -33 -42 -60 -28 -199 -107 -280 -160 l-63 -40 -67 44 c-79 52 -258 152 -290 162 -11 4 -24 14 -27 22 -10 27 38 9 159 -58z"></path> <path d="M1675 3990 l-120 -5 52 -27 52 -28 211 11 211 11 37 -41 c29 -31 68 -54 177 -102 77 -34 145 -65 151 -70 6 -5 14 -61 17 -132 9 -181 1 -168 157 -249 74 -39 188 -101 254 -139 65 -38 122 -69 126 -69 3 0 62 32 131 71 68 39 182 100 252 136 150 75 143 65 158 247 6 72 12 133 14 135 2 2 68 32 147 68 111 49 151 73 180 104 l37 41 211 -11 210 -11 52 27 53 28 -115 6 c-63 4 -194 7 -290 7 l-175 1 -25 -40 c-26 -42 -97 -82 -276 -155 l-71 -28 -11 -152 c-14 -188 -6 -171 -114 -224 -104 -51 -333 -185 -343 -200 -11 -18 -30 -11 -116 46 -46 30 -148 87 -226 127 -163 82 -147 56 -163 262 -6 71 -14 133 -18 137 -4 3 -69 34 -145 67 -167 74 -181 83 -202 127 l-16 34 -172 -2 c-95 -1 -226 -4 -292 -8z"></path> <path d="M2920 3962 c-29 -6 -36 -12 -38 -35 -9 -73 82 -312 118 -312 45 0 153 324 113 339 -26 10 -155 15 -193 8z m25 -154 c14 -6 25 -19 25 -30 0 -24 -15 -23 -40 2 -34 34 -27 47 15 28z m145 2 c0 -5 -9 -19 -20 -30 -11 -11 -24 -20 -30 -20 -18 0 -10 27 13 43 26 19 37 21 37 7z"></path> <path d="M1431 3951 c3 -7 74 -42 159 -78 85 -36 287 -127 448 -203 l292 -138 0 29 c0 26 -7 32 -52 53 -243 109 -364 161 -563 241 -249 101 -290 115 -284 96z"></path> <path d="M4325 3871 c-222 -89 -403 -167 -566 -243 -82 -38 -89 -43 -89 -70 0 -16 3 -27 8 -25 4 3 131 63 282 135 235 111 393 182 573 256 36 14 50 36 25 36 -7 0 -112 -40 -233 -89z"></path> <path d="M1870 3913 c-47 -2 -96 -6 -109 -9 -34 -7 -16 -19 160 -97 79 -35 210 -94 290 -131 l146 -68 7 -61 c3 -34 15 -90 27 -124 l20 -61 67 -27 c79 -31 275 -132 420 -217 l103 -60 72 42 c149 88 345 191 426 224 47 19 89 43 94 52 17 30 47 155 47 194 l0 36 218 99 c377 171 404 184 398 193 -3 5 -77 12 -165 15 l-161 7 -32 -35 c-23 -24 -76 -53 -178 -98 -129 -58 -145 -68 -148 -91 -2 -14 1 -26 7 -26 13 0 381 168 398 182 6 5 28 8 48 6 33 -3 13 -14 -191 -107 -126 -57 -236 -106 -245 -108 -13 -4 -17 -22 -22 -81 -10 -152 -4 -145 -200 -244 -95 -48 -214 -115 -265 -148 -51 -33 -97 -60 -101 -60 -5 0 -41 22 -82 48 -83 55 -326 187 -406 221 -58 26 -70 52 -80 186 l-6 71 -51 21 c-104 43 -426 196 -426 203 0 17 66 -8 259 -96 229 -105 223 -104 219 -68 -3 23 -20 34 -152 93 -101 46 -158 78 -178 99 -26 30 -32 32 -85 30 -32 -1 -96 -3 -143 -5z"></path> <path d="M2780 3829 c-148 -46 -150 -47 -150 -91 0 -34 3 -39 18 -33 41 18 150 54 179 60 26 5 32 3 38 -14 4 -12 15 -21 27 -21 15 0 18 4 13 18 -3 9 -11 36 -18 60 -13 48 -16 49 -107 21z"></path> <path d="M3113 3808 c-7 -24 -15 -51 -18 -60 -5 -14 -2 -18 13 -18 12 0 23 9 27 20 9 28 83 13 218 -45 14 -6 17 -1 17 33 0 39 -1 40 -57 60 -181 64 -185 65 -200 10z"></path> <path d="M1575 3800 c-8 -13 28 -31 230 -118 105 -45 253 -110 330 -145 l140 -63 23 -77 24 -77 242 -120 c132 -65 283 -144 333 -175 51 -30 97 -55 103 -55 6 0 59 27 117 61 58 33 208 112 333 175 l229 115 26 80 c16 48 34 83 44 86 9 4 115 50 236 103 121 54 261 115 310 136 109 46 146 68 123 72 -23 4 -174 -53 -484 -185 l-271 -115 -18 -57 c-28 -90 -40 -106 -85 -120 -60 -18 -297 -139 -432 -220 -65 -39 -123 -71 -129 -71 -7 0 -48 23 -91 51 -96 61 -357 197 -450 234 -71 28 -80 40 -107 140 -10 40 -13 42 -123 90 -373 162 -645 268 -653 255z"></path> <path d="M2642 3682 c-9 -6 -11 -21 -6 -50 6 -41 8 -43 108 -95 56 -30 136 -75 178 -101 l78 -47 117 70 c65 38 148 84 186 102 67 33 67 33 67 75 0 29 -5 44 -16 48 -27 10 -34 7 -34 -17 0 -13 -6 -30 -12 -39 -18 -23 -301 -189 -313 -184 -5 2 -75 42 -155 89 -133 78 -146 88 -154 121 -10 36 -20 43 -44 28z"></path> <path d="M1740 3631 c0 -5 10 -15 23 -23 44 -28 507 -241 512 -236 31 30 -216 159 -484 253 -51 18 -51 18 -51 6z"></path> <path d="M4105 3584 c-347 -144 -385 -165 -385 -209 0 -16 479 205 528 243 47 36 -1 25 -143 -34z"></path>                 </g> </svg>